<svg width="28" height="36" viewBox="0 0 28 36" fill="none" xmlns="http://www.w3.org/2000/svg">
<path d="M27.4806 17.511C25.6806 15.611 23.2806 14.311 20.7806 13.811C19.6806 13.511 18.5806 13.311 17.4806 13.211C20.2806 9.91103 19.7806 4.91103 16.4806 2.11103C13.1806 -0.688973 8.18064 -0.188973 5.38064 3.11103C2.58064 6.41103 3.08064 11.411 6.38064 14.211C6.98064 14.711 7.58064 15.111 8.18064 15.311V17.511L6.58064 16.011C5.18063 14.611 2.88064 14.611 1.38064 16.011C-0.0193647 17.411 -0.119365 19.611 1.28063 21.011L5.88064 26.411C6.08064 27.811 6.58064 29.111 7.28063 30.311C7.78063 31.211 8.48064 32.111 9.18064 32.811V34.711C9.18064 35.311 9.58064 35.711 10.1806 35.711H23.7806C24.2806 35.711 24.7806 35.211 24.7806 34.711V32.111C26.6806 29.811 27.6806 26.911 27.6806 24.011V18.211C27.7806 17.811 27.6806 17.611 27.4806 17.511ZM5.48063 8.11103C5.48063 4.81103 8.18063 2.21103 11.4806 2.31103C14.7806 2.31103 17.3806 5.01103 17.2806 8.31103C17.2806 10.111 16.4806 11.711 15.0806 12.811V7.81103C15.0296 6.9444 14.6489 6.13013 14.0168 5.53514C13.3846 4.94016 12.5488 4.60952 11.6806 4.61103C9.88064 4.51103 8.28063 6.01103 8.28063 7.81103V13.011C6.58064 12.011 5.58063 10.111 5.48063 8.11103ZM25.7806 23.911C25.8806 26.511 24.9806 29.011 23.2806 31.011C23.0806 31.211 22.8806 31.411 22.8806 31.711V33.811H11.2806V32.411C11.2806 32.111 11.0806 31.811 10.8806 31.611C10.1806 31.011 9.58064 30.311 9.08064 29.411C8.48063 28.411 8.08064 27.211 7.88064 26.011C7.88064 25.811 7.78064 25.611 7.68064 25.411L2.88064 19.711C2.58064 19.411 2.38064 19.011 2.38064 18.511C2.38064 18.111 2.58064 17.611 2.88064 17.311C3.58064 16.711 4.58064 16.711 5.28063 17.311L8.18064 20.211V23.211L10.0806 22.211V7.81103C10.1806 7.11103 10.7806 6.51103 11.5806 6.61103C12.2806 6.61103 12.9806 7.11103 12.9806 7.81103V19.311L14.9806 19.711V15.111C15.0806 15.011 15.1806 15.011 15.2806 14.911C15.9806 14.911 16.6806 15.011 17.3806 15.111V20.211L18.9806 20.511V15.311L20.1806 15.611C20.6806 15.711 21.1806 15.911 21.6806 16.111V21.111L23.2806 21.411V16.811C24.1806 17.211 24.9806 17.811 25.6806 18.511L25.7806 23.911Z"/>
</svg>